<?xml version="1.0" encoding="utf-8"?>
<!-- Generator: Adobe Illustrator 24.1.2, SVG Export Plug-In . SVG Version: 6.00 Build 0)  -->
<svg version="1.1" id="Layer_1" xmlns="http://www.w3.org/2000/svg" xmlns:xlink="http://www.w3.org/1999/xlink" x="0px" y="0px"
	 viewBox="0 0 50 50" style="enable-background:new 0 0 50 50;" xml:space="preserve">
<path d="M39.15,16C37.33,9.65,32.62,4,25,4S12.67,9.65,10.85,16H1v34h49V16H39.15z M25,6c6.55,0,10.44,4.69,12.08,10H12.92
	C14.56,10.69,18.45,6,25,6z M48,48H3V18h7.38C10.13,19.34,10,20.69,10,22h2c0-1.3,0.14-2.65,0.4-4H37.6c0.27,1.35,0.4,2.7,0.4,4h2
	c0-1.31-0.13-2.66-0.38-4H48V48z"/>
</svg>
